<svg width="61" height="64" viewBox="0 0 61 64" fill="none" xmlns="http://www.w3.org/2000/svg">
<g filter="url(#filter0_d_0_49)">
<path d="M16.9966 8.56536L17.2643 8.54599L17.3961 8.31226C18.7608 5.89207 20.557 3.98813 22.7854 2.59023C25.0032 1.19901 27.5087 0.5 30.3158 0.5C34.1895 0.5 37.4076 1.73564 40.0048 4.1963C42.6201 6.67414 44.2252 9.74037 44.8223 13.4136L44.887 13.812L45.2902 13.8327C48.6469 14.0049 51.2687 15.1505 53.2057 17.2399C55.1602 19.3482 56.1316 21.816 56.1316 24.6667C56.1316 27.6474 55.097 30.1886 53.0174 32.3173C50.9406 34.4429 48.4271 35.5 45.4474 35.5H17.8158C14.1347 35.5 11.006 34.1876 8.40194 31.5488C5.79762 28.9098 4.5 25.7362 4.5 22C4.5 18.6196 5.68835 15.6037 8.08888 12.9343C10.4808 10.2746 13.4418 8.82266 16.9966 8.56536ZM17.6842 11.5H17.676L17.6679 11.5003C14.8206 11.5933 12.3953 12.6577 10.4184 14.6842C8.44095 16.7113 7.44737 19.159 7.44737 22C7.44737 24.8866 8.46375 27.3684 10.4862 29.4179C12.5089 31.4675 14.9612 32.5 17.8158 32.5H45.4474C47.5997 32.5 49.4397 31.7233 50.9375 30.1818C52.4333 28.6424 53.1842 26.7724 53.1842 24.6C53.1842 22.4687 52.4308 20.6314 50.9348 19.1155C49.4364 17.597 47.5972 16.8333 45.4474 16.8333H42V15.3333C42 12.0494 40.8648 9.24454 38.5993 6.9488C36.3335 4.65279 33.5624 3.5 30.3158 3.5C27.9819 3.5 25.8361 4.13937 23.8903 5.4152C21.9427 6.69224 20.5083 8.42543 19.5932 10.6028L19.1996 11.5H17.6842ZM14.5263 44.8333C14.0558 44.8333 13.644 44.6608 13.2704 44.2821C12.8967 43.9035 12.7237 43.4831 12.7237 43C12.7237 42.5169 12.8967 42.0965 13.2704 41.7179C13.644 41.3392 14.0558 41.1667 14.5263 41.1667C14.9969 41.1667 15.4086 41.3392 15.7823 41.7179C16.156 42.0965 16.3289 42.5169 16.3289 43C16.3289 43.4831 16.156 43.9035 15.7823 44.2821C15.4086 44.6608 14.9969 44.8333 14.5263 44.8333ZM46.1053 44.8333C45.6347 44.8333 45.223 44.6608 44.8493 44.2821C44.4756 43.9035 44.3026 43.4831 44.3026 43C44.3026 42.5169 44.4756 42.0965 44.8493 41.7179C45.223 41.3392 45.6347 41.1667 46.1053 41.1667C46.5758 41.1667 46.9876 41.3392 47.3612 41.7179C47.7349 42.0965 47.9079 42.5169 47.9079 43C47.9079 43.4831 47.7349 43.9035 47.3612 44.2821C46.9876 44.6608 46.5758 44.8333 46.1053 44.8333ZM22.4211 55.5C21.9505 55.5 21.5387 55.3274 21.1651 54.9488C20.7914 54.5701 20.6184 54.1498 20.6184 53.6667C20.6184 53.1835 20.7914 52.7632 21.1651 52.3845C21.5387 52.0059 21.9505 51.8333 22.4211 51.8333C22.8916 51.8333 23.3034 52.0059 23.677 52.3845C24.0507 52.7632 24.2237 53.1835 24.2237 53.6667C24.2237 54.1498 24.0507 54.5701 23.677 54.9488C23.3034 55.3274 22.8916 55.5 22.4211 55.5ZM30.3158 44.8333C29.8452 44.8333 29.4335 44.6608 29.0598 44.2821C28.6861 43.9035 28.5132 43.4831 28.5132 43C28.5132 42.5169 28.6861 42.0965 29.0598 41.7179C29.4335 41.3392 29.8452 41.1667 30.3158 41.1667C30.7863 41.1667 31.1981 41.3392 31.5717 41.7179C31.9454 42.0965 32.1184 42.5169 32.1184 43C32.1184 43.4831 31.9454 43.9035 31.5717 44.2821C31.1981 44.6608 30.7863 44.8333 30.3158 44.8333ZM38.2105 55.5C37.74 55.5 37.3282 55.3274 36.9546 54.9488C36.5809 54.5701 36.4079 54.1498 36.4079 53.6667C36.4079 53.1835 36.5809 52.7632 36.9546 52.3845C37.3282 52.0059 37.74 51.8333 38.2105 51.8333C38.6811 51.8333 39.0928 52.0059 39.4665 52.3845C39.8402 52.7632 40.0132 53.1835 40.0132 53.6667C40.0132 54.1498 39.8402 54.5701 39.4665 54.9488C39.0928 55.3274 38.6811 55.5 38.2105 55.5Z" fill="white" stroke="black"/>
</g>
<defs>
<filter id="filter0_d_0_49" x="0" y="0" width="60.6316" height="64" filterUnits="userSpaceOnUse" color-interpolation-filters="sRGB">
<feFlood flood-opacity="0" result="BackgroundImageFix"/>
<feColorMatrix in="SourceAlpha" type="matrix" values="0 0 0 0 0 0 0 0 0 0 0 0 0 0 0 0 0 0 127 0" result="hardAlpha"/>
<feOffset dy="4"/>
<feGaussianBlur stdDeviation="2"/>
<feComposite in2="hardAlpha" operator="out"/>
<feColorMatrix type="matrix" values="0 0 0 0 0 0 0 0 0 0 0 0 0 0 0 0 0 0 0.25 0"/>
<feBlend mode="normal" in2="BackgroundImageFix" result="effect1_dropShadow_0_49"/>
<feBlend mode="normal" in="SourceGraphic" in2="effect1_dropShadow_0_49" result="shape"/>
</filter>
</defs>
</svg>
