<svg width="56" height="64" viewBox="0 0 56 64" fill="none" xmlns="http://www.w3.org/2000/svg">
<g filter="url(#filter0_d_0_42)">
<path d="M8.42105 32.4211C8.42105 35.5158 9.12105 38.4263 10.5211 41.1526C11.9211 43.8789 13.8737 46.1509 16.3789 47.9684C16.1825 47.3789 16.0351 46.7772 15.9368 46.1632C15.8386 45.5491 15.7895 44.9474 15.7895 44.3579C15.7895 42.786 16.0842 41.3123 16.6737 39.9368C17.2632 38.5614 18.1228 37.3088 19.2526 36.1789L27.5789 28L35.9053 36.1789C37.0351 37.3088 37.8947 38.5614 38.4842 39.9368C39.0737 41.3123 39.3684 42.786 39.3684 44.3579C39.3684 44.9474 39.3193 45.5491 39.221 46.1632C39.1228 46.7772 38.9754 47.3789 38.7789 47.9684C41.2842 46.1509 43.2368 43.8789 44.6368 41.1526C46.0368 38.4263 46.7368 35.5158 46.7368 32.4211C46.7368 29.7684 46.1719 27.1772 45.0421 24.6474C43.9123 22.1175 42.2912 19.7965 40.1789 17.6842C39.1474 18.4211 38.0667 18.9982 36.9368 19.4158C35.807 19.8333 34.6772 20.0421 33.5474 20.0421C30.5509 20.0421 28.0702 19.0228 26.1053 16.9842C24.1403 14.9456 23.1579 12.3789 23.1579 9.28421V7.81053C20.8982 9.43158 18.8596 11.2246 17.0421 13.1895C15.2246 15.1544 13.6772 17.2053 12.4 19.3421C11.1228 21.4789 10.1404 23.6649 9.45263 25.9C8.76491 28.1351 8.42105 30.3088 8.42105 32.4211ZM27.5789 34.1895L22.3474 39.3474C21.6596 40.0351 21.1316 40.7965 20.7632 41.6316C20.3947 42.4667 20.2105 43.3754 20.2105 44.3579C20.2105 46.3719 20.9228 48.0789 22.3474 49.4789C23.7719 50.8789 25.5158 51.5789 27.5789 51.5789C29.6421 51.5789 31.386 50.8789 32.8105 49.4789C34.2351 48.0789 34.9474 46.3719 34.9474 44.3579C34.9474 43.3754 34.7632 42.4667 34.3947 41.6316C34.0263 40.7965 33.4982 40.0351 32.8105 39.3474L27.5789 34.1895ZM27.5789 0V9.72632C27.5789 11.3965 28.1561 12.7965 29.3105 13.9263C30.4649 15.0561 31.8772 15.6211 33.5474 15.6211C34.4316 15.6211 35.2544 15.4368 36.0158 15.0684C36.7772 14.7 37.4526 14.1474 38.0421 13.4105L39.3684 11.7895C43.0035 13.8526 45.8772 16.7263 47.9895 20.4105C50.1017 24.0947 51.1579 28.0982 51.1579 32.4211C51.1579 39.0035 48.8737 44.5789 44.3053 49.1474C39.7368 53.7158 34.1614 56 27.5789 56C20.9965 56 15.4211 53.7158 10.8526 49.1474C6.28421 44.5789 4 39.0035 4 32.4211C4 26.1333 6.11228 20.0789 10.3368 14.2579C14.5614 8.43684 20.3088 3.68421 27.5789 0Z" fill="white"/>
<path d="M16.0853 48.3731L17.3457 49.2875L16.8533 47.8103C16.6654 47.2467 16.5245 46.6714 16.4306 46.0842C16.3363 45.4948 16.2895 44.9195 16.2895 44.3579C16.2895 42.8502 16.5718 41.4439 17.1333 40.1338C17.6957 38.8213 18.5175 37.6216 19.6046 36.5341C19.6051 36.5336 19.6057 36.533 19.6062 36.5325L27.5789 28.7009L35.5517 36.5325C35.5523 36.533 35.5528 36.5336 35.5534 36.5341C36.6405 37.6216 37.4622 38.8214 38.0246 40.1338C38.5861 41.4439 38.8684 42.8502 38.8684 44.3579C38.8684 44.9195 38.8216 45.4948 38.7273 46.0842C38.6334 46.6714 38.4925 47.2467 38.3046 47.8103L37.8122 49.2875L39.0726 48.3731C41.6407 46.51 43.6454 44.1779 45.0816 41.381C46.5183 38.5833 47.2368 35.5944 47.2368 32.4211C47.2368 29.695 46.6558 27.0345 45.4986 24.4435C44.342 21.8537 42.6846 19.4827 40.5325 17.3307L40.233 17.0312L39.8883 17.2773C38.891 17.9897 37.8495 18.5454 36.7635 18.9468C35.6855 19.3452 34.6142 19.5421 33.5474 19.5421C30.6778 19.5421 28.33 18.5719 26.4653 16.6372C24.5989 14.7009 23.6579 12.2627 23.6579 9.28421V7.81053V6.83647L22.8664 7.40426C20.5805 9.04419 18.5164 10.8594 16.6751 12.85C14.8357 14.8384 13.2671 16.9169 11.9708 19.0856C10.6744 21.2546 9.67498 23.4772 8.97474 25.753C8.27392 28.0306 7.92105 30.2539 7.92105 32.4211C7.92105 35.5944 8.63961 38.5833 10.0763 41.381C11.5125 44.1779 13.5172 46.51 16.0853 48.3731ZM27.93 33.8334L27.5789 33.4873L27.2279 33.8334L21.9963 38.9913L21.9938 38.9938C21.2653 39.7224 20.7007 40.5345 20.3057 41.4298C19.9071 42.3332 19.7105 43.3113 19.7105 44.3579C19.7105 46.5048 20.4758 48.3407 21.9969 49.8356C23.5183 51.3308 25.3895 52.0789 27.5789 52.0789C29.7684 52.0789 31.6395 51.3308 33.161 49.8356C34.6821 48.3407 35.4474 46.5048 35.4474 44.3579C35.4474 43.3113 35.2508 42.3332 34.8522 41.4298C34.4572 40.5345 33.8926 39.7224 33.1641 38.9938L33.1616 38.9913L27.93 33.8334ZM36.2336 15.5185C37.0687 15.1144 37.8006 14.5122 38.4308 13.725C38.4314 13.7243 38.432 13.7236 38.4325 13.7229L39.486 12.4354C42.87 14.4367 45.5584 17.1755 47.5557 20.6592C49.6238 24.2663 50.6579 28.1839 50.6579 32.4211C50.6579 38.8737 48.4244 44.3211 43.9517 48.7938C39.479 53.2665 34.0316 55.5 27.5789 55.5C21.1263 55.5 15.6789 53.2665 11.2062 48.7938C6.73349 44.3211 4.5 38.8737 4.5 32.4211C4.5 26.2536 6.56964 20.3 10.7415 14.5516C14.7725 8.99724 20.2135 4.41844 27.0789 0.82017V9.72632C27.0789 11.5258 27.7067 13.0562 28.9608 14.2836C30.2121 15.5083 31.7514 16.1211 33.5474 16.1211C34.5035 16.1211 35.4012 15.9213 36.2336 15.5185Z" stroke="black"/>
</g>
<defs>
<filter id="filter0_d_0_42" x="0" y="0" width="55.1579" height="64" filterUnits="userSpaceOnUse" color-interpolation-filters="sRGB">
<feFlood flood-opacity="0" result="BackgroundImageFix"/>
<feColorMatrix in="SourceAlpha" type="matrix" values="0 0 0 0 0 0 0 0 0 0 0 0 0 0 0 0 0 0 127 0" result="hardAlpha"/>
<feOffset dy="4"/>
<feGaussianBlur stdDeviation="2"/>
<feComposite in2="hardAlpha" operator="out"/>
<feColorMatrix type="matrix" values="0 0 0 0 0 0 0 0 0 0 0 0 0 0 0 0 0 0 0.25 0"/>
<feBlend mode="normal" in2="BackgroundImageFix" result="effect1_dropShadow_0_42"/>
<feBlend mode="normal" in="SourceGraphic" in2="effect1_dropShadow_0_42" result="shape"/>
</filter>
</defs>
</svg>
