<svg width="53" height="64" viewBox="0 0 53 64" fill="none" xmlns="http://www.w3.org/2000/svg">
<g filter="url(#filter0_d_0_22)">
<path d="M8.83553 56V51.8H24.0329V39.2H17.8158C13.9934 39.2 10.7352 37.835 8.04112 35.105C5.34704 32.375 4 29.0733 4 25.2C4 22.4 4.75987 19.8217 6.2796 17.465C7.79934 15.1083 9.84868 13.3933 12.4276 12.32C12.8421 8.82 14.3503 5.89167 16.9523 3.535C19.5543 1.17833 22.6053 0 26.1053 0C29.6053 0 32.6562 1.17833 35.2582 3.535C37.8602 5.89167 39.3684 8.82 39.7829 12.32C42.3618 13.3933 44.4112 15.1083 45.9309 17.465C47.4507 19.8217 48.2105 22.4 48.2105 25.2C48.2105 29.0733 46.8635 32.375 44.1694 35.105C41.4753 37.835 38.2171 39.2 34.3947 39.2H28.1776V51.8H44.0658V56H8.83553ZM17.8158 35H34.3947C37.0658 35 39.3454 34.0433 41.2336 32.13C43.1217 30.2167 44.0658 27.9067 44.0658 25.2C44.0658 23.24 43.5132 21.455 42.4079 19.845C41.3026 18.235 39.875 17.0333 38.125 16.24L35.9145 15.26L35.6382 12.81C35.3158 10.3367 34.2566 8.28333 32.4605 6.65C30.6645 5.01667 28.5461 4.2 26.1053 4.2C23.6645 4.2 21.5461 5.01667 19.75 6.65C17.9539 8.28333 16.8947 10.3367 16.5724 12.81L16.2961 15.26L14.0855 16.24C12.3355 17.0333 10.9079 18.235 9.80263 19.845C8.69737 21.455 8.14474 23.24 8.14474 25.2C8.14474 27.9067 9.08882 30.2167 10.977 32.13C12.8651 34.0433 15.1447 35 17.8158 35Z" fill="white"/>
<path d="M28.1776 52.3H43.5658V55.5H9.33553V52.3H24.0329H24.5329V51.8V39.2V38.7H24.0329H17.8158C14.1277 38.7 10.9975 37.389 8.39701 34.7538C5.79628 32.1184 4.5 28.9433 4.5 25.2C4.5 22.4963 5.23208 20.012 6.69981 17.736C8.16483 15.4642 10.1348 13.8158 12.6198 12.7816L12.8898 12.6692L12.9242 12.3788C13.3245 8.99823 14.7759 6.18082 17.288 3.90559C19.7983 1.63193 22.7297 0.5 26.1053 0.5C29.4808 0.5 32.4122 1.63193 34.9226 3.90559C37.4346 6.18082 38.886 8.99823 39.2864 12.3788L39.3208 12.6692L39.5908 12.7816C42.0757 13.8158 44.0457 15.4642 45.5107 17.736C46.9784 20.012 47.7105 22.4963 47.7105 25.2C47.7105 28.9433 46.4142 32.1184 43.8135 34.7538C41.213 37.389 38.0828 38.7 34.3947 38.7H28.1776H27.6776V39.2V51.8V52.3H28.1776ZM38.3315 15.7846L38.3276 15.7829L36.3792 14.9191L36.135 12.754L36.1351 12.754L36.134 12.7454C35.7967 10.1581 34.6832 7.99545 32.7969 6.28009C30.9083 4.56255 28.6697 3.7 26.1053 3.7C23.5408 3.7 21.3022 4.56255 19.4136 6.28009C17.5273 7.99545 16.4138 10.1581 16.0766 12.7454L16.0765 12.7454L16.0755 12.754L15.8313 14.9191L13.8829 15.7829L13.8829 15.7829L13.8791 15.7846C12.0446 16.6162 10.5464 17.8782 9.39042 19.562C8.22775 21.2556 7.64474 23.1394 7.64474 25.2C7.64474 28.0371 8.63988 30.4736 10.6211 32.4812C12.6025 34.4891 15.01 35.5 17.8158 35.5H34.3947C37.2005 35.5 39.608 34.4891 41.5894 32.4812C43.5707 30.4736 44.5658 28.0371 44.5658 25.2C44.5658 23.1394 43.9828 21.2556 42.8201 19.562C41.6641 17.8782 40.1659 16.6162 38.3315 15.7846Z" stroke="black"/>
</g>
<defs>
<filter id="filter0_d_0_22" x="0" y="0" width="52.2105" height="64" filterUnits="userSpaceOnUse" color-interpolation-filters="sRGB">
<feFlood flood-opacity="0" result="BackgroundImageFix"/>
<feColorMatrix in="SourceAlpha" type="matrix" values="0 0 0 0 0 0 0 0 0 0 0 0 0 0 0 0 0 0 127 0" result="hardAlpha"/>
<feOffset dy="4"/>
<feGaussianBlur stdDeviation="2"/>
<feComposite in2="hardAlpha" operator="out"/>
<feColorMatrix type="matrix" values="0 0 0 0 0 0 0 0 0 0 0 0 0 0 0 0 0 0 0.25 0"/>
<feBlend mode="normal" in2="BackgroundImageFix" result="effect1_dropShadow_0_22"/>
<feBlend mode="normal" in="SourceGraphic" in2="effect1_dropShadow_0_22" result="shape"/>
</filter>
</defs>
</svg>
